<?xml version="1.0" encoding="UTF-8" standalone="no"?><svg xmlns="http://www.w3.org/2000/svg" xmlns:xlink="http://www.w3.org/1999/xlink" fill="#000000" height="258.3" preserveAspectRatio="xMidYMid meet" version="1" viewBox="0.0 0.0 420.6 258.3" width="420.6" zoomAndPan="magnify"><defs><clipPath id="a"><path d="M 157 79 L 309 79 L 309 258.289062 L 157 258.289062 Z M 157 79"/></clipPath><clipPath id="b"><path d="M 0 0 L 420.648438 0 L 420.648438 94 L 0 94 Z M 0 0"/></clipPath></defs><g><g clip-path="url(#a)" id="change1_2"><path d="M 162.472656 167.746094 L 211.804688 231.320312 L 211.859375 231.40625 C 220.695312 245.441406 235.675781 253.960938 251.933594 254.199219 C 252.214844 254.203125 252.78125 254.199219 252.78125 254.199219 C 257.9375 254.1875 263.332031 253.386719 268.824219 251.8125 C 289.5625 245.875 304.015625 226.550781 303.972656 204.816406 L 303.859375 151.160156 L 303.746094 149.5625 C 302.984375 144.214844 298.351562 140.195312 292.9375 140.195312 C 292.933594 140.195312 292.925781 140.195312 292.917969 140.195312 C 287.472656 140.207031 282.832031 144.28125 282.121094 149.671875 L 281.886719 151.449219 L 277.933594 151.449219 L 277.921875 146.511719 C 277.910156 140.523438 273.425781 135.550781 267.710938 135.191406 C 264.644531 135 261.742188 136.046875 259.519531 138.136719 C 257.296875 140.230469 256.078125 143.0625 256.085938 146.113281 L 251.992188 146.121094 L 251.984375 141.753906 C 251.972656 135.765625 247.488281 130.792969 241.773438 130.433594 C 238.710938 130.238281 235.804688 131.289062 233.582031 133.378906 C 231.359375 135.472656 230.140625 138.304688 230.144531 141.355469 L 226.058594 141.363281 L 225.960938 95.03125 C 225.949219 89.042969 221.464844 84.070312 215.75 83.714844 C 212.6875 83.519531 209.78125 84.566406 207.558594 86.65625 C 205.335938 88.75 204.117188 91.582031 204.121094 94.632812 L 204.289062 174.304688 C 204.289062 175.855469 203.296875 177.210938 201.8125 177.667969 C 200.394531 178.109375 198.882812 177.621094 197.988281 176.453125 L 186.84375 164.707031 L 186.75 164.570312 C 181.644531 157.09375 171.402344 155.164062 163.921875 160.273438 C 161.476562 161.945312 160.832031 165.285156 162.472656 167.746094 Z M 252.265625 258.292969 C 252.121094 258.292969 251.976562 258.289062 251.871094 258.289062 C 234.261719 258.03125 218.035156 248.828125 208.453125 233.671875 L 159.164062 170.148438 L 159.128906 170.097656 C 156.175781 165.773438 157.289062 159.851562 161.613281 156.894531 C 170.910156 150.546875 183.621094 152.898438 190.03125 162.125 L 200.195312 172.839844 L 200.03125 94.640625 C 200.023438 90.507812 201.746094 86.511719 204.757812 83.679688 C 207.808594 80.804688 211.808594 79.367188 216.003906 79.632812 C 223.863281 80.121094 230.03125 86.882812 230.050781 95.023438 L 230.125 131.058594 C 230.335938 130.832031 230.554688 130.613281 230.777344 130.402344 C 233.832031 127.527344 237.824219 126.089844 242.027344 126.351562 C 248.203125 126.738281 253.332031 130.996094 255.257812 136.746094 C 255.703125 136.183594 256.191406 135.65625 256.71875 135.160156 C 259.769531 132.285156 263.761719 130.84375 267.964844 131.109375 C 274.210938 131.503906 279.390625 135.851562 281.261719 141.703125 C 284.027344 138.285156 288.257812 136.113281 292.910156 136.105469 C 292.917969 136.105469 292.929688 136.105469 292.9375 136.105469 C 300.410156 136.105469 306.800781 141.675781 307.808594 149.074219 L 307.820312 149.207031 L 307.949219 151.082031 L 308.058594 204.808594 C 308.109375 228.359375 292.4375 249.304688 269.949219 255.746094 C 264.09375 257.421875 258.324219 258.277344 252.800781 258.289062 C 252.800781 258.289062 252.535156 258.292969 252.265625 258.292969" fill="#ffffff"/></g><g id="change1_3"><path d="M 99.347656 49.683594 C 96.421875 41.523438 94.773438 37.050781 94.0625 34.507812 L 94.015625 34.507812 C 93.226562 37.328125 91.390625 42.707031 89.035156 49.683594 Z M 87.855469 53.738281 L 84.566406 62.992188 L 79.820312 62.992188 L 91.203125 30.738281 L 97.132812 30.738281 L 109.007812 62.992188 L 103.921875 62.992188 L 100.519531 53.738281 L 87.855469 53.738281" fill="#ffffff"/></g><g id="change1_4"><path d="M 118.695312 46 L 125.757812 46 C 129.949219 46 132.175781 44.015625 132.175781 40.351562 C 132.175781 36.535156 129.550781 34.707031 125.925781 34.707031 L 118.695312 34.707031 Z M 113.882812 30.738281 L 126.335938 30.738281 C 132.726562 30.738281 137.085938 34.308594 137.085938 40.238281 C 137.085938 46.65625 132.410156 49.96875 126.097656 49.96875 L 118.695312 49.96875 L 118.695312 62.992188 L 113.882812 62.992188 L 113.882812 30.738281" fill="#ffffff"/></g><g id="change1_5"><path d="M 147.765625 46 L 154.828125 46 C 159.023438 46 161.246094 44.015625 161.246094 40.351562 C 161.246094 36.535156 158.621094 34.707031 154.996094 34.707031 L 147.765625 34.707031 Z M 142.953125 30.738281 L 155.40625 30.738281 C 161.796875 30.738281 166.15625 34.308594 166.15625 40.238281 C 166.15625 46.65625 161.484375 49.96875 155.167969 49.96875 L 147.765625 49.96875 L 147.765625 62.992188 L 142.953125 62.992188 L 142.953125 30.738281" fill="#ffffff"/></g><g id="change1_6"><path d="M 172.027344 30.738281 L 176.8125 30.738281 L 176.8125 58.9375 L 193.492188 58.9375 L 192.859375 62.992188 L 172.027344 62.992188 L 172.027344 30.738281" fill="#ffffff"/></g><g id="change1_7"><path d="M 200.546875 62.992188 L 200.546875 51.242188 C 200.546875 50.921875 200.476562 50.597656 200.320312 50.351562 L 189.007812 30.738281 L 194.464844 30.738281 C 197.3125 35.90625 201.714844 43.871094 203.210938 46.835938 C 204.605469 43.9375 209.175781 35.851562 212.109375 30.738281 L 217.199219 30.738281 L 205.5625 50.390625 C 205.449219 50.597656 205.359375 50.761719 205.359375 51.257812 L 205.359375 62.992188 L 200.546875 62.992188" fill="#ffffff"/></g><g id="change1_8"><path d="M 232.769531 62.992188 L 232.769531 30.738281 L 238.996094 30.738281 C 243.507812 38.222656 253.074219 53.699219 254.820312 57.210938 L 254.890625 57.210938 C 254.570312 53.214844 254.59375 48.03125 254.59375 42.757812 L 254.59375 30.738281 L 259.070312 30.738281 L 259.070312 62.992188 L 253.203125 62.992188 C 249.09375 56.121094 239.023438 39.289062 237.082031 35.652344 L 237.015625 35.652344 C 237.246094 39.164062 237.265625 44.851562 237.265625 50.664062 L 237.265625 62.992188 L 232.769531 62.992188" fill="#ffffff"/></g><g id="change1_9"><path d="M 270.644531 46.726562 C 270.644531 53.570312 274.058594 59.425781 280.765625 59.425781 C 288.007812 59.425781 290.84375 53.4375 290.84375 46.765625 C 290.84375 39.976562 287.628906 34.304688 280.753906 34.304688 C 273.722656 34.304688 270.644531 39.957031 270.644531 46.726562 Z M 295.835938 46.695312 C 295.835938 55.585938 290.78125 63.457031 280.5625 63.457031 C 270.949219 63.457031 265.652344 56.113281 265.652344 46.863281 C 265.652344 37.609375 271.144531 30.273438 280.949219 30.273438 C 290.097656 30.273438 295.835938 37.054688 295.835938 46.695312" fill="#ffffff"/></g><g id="change1_10"><path d="M 307.632812 62.992188 L 299.066406 30.738281 L 304.136719 30.738281 C 306.742188 42.105469 309.828125 54.167969 310.382812 57.828125 L 310.425781 57.828125 C 311.347656 53.332031 315.527344 38.886719 317.589844 30.738281 L 322.148438 30.738281 C 324.03125 37.75 328.222656 53.398438 329.007812 57.636719 L 329.054688 57.636719 C 330.097656 51.769531 334.347656 37.058594 336.007812 30.738281 L 340.714844 30.738281 L 331.429688 62.992188 L 326.335938 62.992188 C 324.429688 55.625 320.527344 41.1875 319.675781 37.007812 L 319.628906 37.007812 C 318.625 41.992188 314.707031 55.757812 312.703125 62.992188 L 307.632812 62.992188" fill="#ffffff"/></g><g clip-path="url(#b)" id="change1_1"><path d="M 373.816406 0.00390625 L 46.832031 0.00390625 C 21.007812 0.00390625 0 21.011719 0 46.832031 L 0 46.898438 C 0 72.71875 21.007812 93.726562 46.832031 93.726562 L 191.980469 93.726562 L 191.980469 88.769531 L 46.832031 88.769531 C 23.742188 88.769531 4.960938 69.984375 4.960938 46.898438 L 4.960938 46.832031 C 4.960938 23.746094 23.742188 4.960938 46.832031 4.960938 L 373.816406 4.960938 C 396.902344 4.960938 415.6875 23.746094 415.6875 46.832031 L 415.6875 46.898438 C 415.6875 69.984375 396.902344 88.769531 373.816406 88.769531 L 236.792969 88.769531 L 236.792969 93.726562 L 373.816406 93.726562 C 399.640625 93.726562 420.644531 72.71875 420.644531 46.898438 L 420.644531 46.832031 C 420.644531 21.011719 399.640625 0.00390625 373.816406 0.00390625" fill="#ffffff"/></g></g></svg>